# xmcd CD database file
#
# Track frame offsets:
#	150
#	16950
#	39075
#
# Disc length: 742 seconds
#
# Revision: 2
# Processed by: cddbd v1.5PL3 Copyright (c) Steve Scherf et al.
# Submitted via: CDex 1.50beta10
#
DISCID=1402e403
DTITLE=tohko - WHO...
DYEAR=1900
DGENRE=
TTITLE0=WHO...Original Mix
TTITLE1=WHO...% finger Mix
TTITLE2=WHO...TV MIX
EXTD=h
EXTT0=
EXTT1=
EXTT2=
PLAYORDER=
